<?xml version="1.0" encoding="UTF-8"?>
<svg width="1024px" height="600px" viewBox="0 0 1024 600" version="1.1" xmlns="http://www.w3.org/2000/svg" xmlns:xlink="http://www.w3.org/1999/xlink" style="background: #363636;">
    <!-- Generator: Sketch 45.2 (43514) - http://www.bohemiancoding.com/sketch -->
    <title>floorplan</title>
    <desc>Created with Sketch.</desc>
    <defs></defs>
    <g id="floorplan" stroke="none" stroke-width="1" fill="none" fill-rule="evenodd">
        <g>
            <g transform="translate(76.000000, 254.000000)">
                <path d="M291.97864,128.636325 L291.97864,128.708619 L287.672078,128.708619 L287.672078,128.527885 L199.009477,128.527885 L199.009477,130.116698 L194.701282,130.116698 L194.701282,128.564032 L178.907286,128.564032 L178.907286,259.11449 L194.701282,259.11449 L194.701282,258.825316 L287.672078,258.825316 L287.672078,155.828518 L291.97864,155.828518 L291.97864,155.936958 L317.573046,155.936958 L317.573046,160.271279 L291.97864,160.271279 L291.97864,258.825316 L344.602972,258.825316 L344.602972,160.271279 L344.495186,160.271279 L344.495186,155.936958 L353.684805,155.936958 L353.684805,160.271279 L349.017322,160.271279 L349.017322,200.357994 L394.748214,200.357994 L394.748214,160.271279 L385.129081,160.271279 L385.129081,155.936958 L399.092338,155.936958 L399.092338,206.20719 L394.856,206.20719 L394.856,204.690671 L348.873606,204.690671 L348.873606,258.463849 L394.856,258.463849 L394.856,258.210822 L399.092338,258.210822 L399.092338,258.319262 L504.984455,258.319262 L504.984455,128.383298 L399.092338,128.383298 L399.092338,128.636325 L384.84165,128.636325 L384.84165,124.085124 L505.307815,124.012831 L505.307815,107.184889 L509.472295,107.184889 L509.472295,220.688881 L647.67098,220.688881 L647.67098,177.064717 L656.645026,177.064717 L656.645026,229.717347 L513.958502,229.717347 L513.958502,268.430486 L183.644995,268.430486 L49.1077863,268.50278 L49.0718577,222.675308 L58.0459044,222.639161 L58.0818331,259.474314 L174.635019,259.403664 L174.563162,124.229711 L353.397375,124.121271 L353.397375,128.636325 L291.97864,128.636325 Z M199.009477,178.219769 L199.009477,200.573231 L194.701282,200.573231 L194.701282,178.219769 L199.009477,178.219769 Z M83.4247369,40.5188321 L92.3987836,40.5188321 L92.3987836,62.0787085 L57.9740467,62.0787085 L57.9740467,227.561572 L49,226.404227 L49,53.0502435 L83.4247369,53.0502435 L83.4247369,40.5188321 Z M58.0459044,192.448433 L58.0459044,195.553766 L49.0718577,195.589912 L49.0718577,192.448433 L58.0459044,192.448433 Z M58.0459044,162.004678 L58.0459044,165.435331 L49.0718577,165.435331 L49.0718577,162.040825 L58.0459044,162.004678 Z M647.455407,72.4429599 L647.455407,9.028465 L567.587209,9.028465 L567.587209,72.4429599 L574.550873,72.4429599 L574.550873,76.8495737 L555.346903,76.8495737 L555.346903,72.5875468 L563.316575,72.5875468 L563.316575,9.06461193 L509.580082,9.06461193 L509.580082,72.5875468 L526.629954,72.5875468 L526.629954,76.8495737 L509.472295,76.8495737 L509.472295,78.2937997 L505.307815,78.2937997 L505.271886,9.2437024 L92.3987836,9.2437024 L92.3987836,11.6277431 L83.4247369,11.6277431 L83.4247369,0.0361465116 L558.613162,0.0361465116 L558.613162,1.13686838e-13 L656.645026,1.13686838e-13 L656.645026,119.282539 L647.67098,119.282539 L647.67098,76.8495737 L603.267822,76.8495737 L603.267822,72.4429599 L647.455407,72.4429599 Z" id="Shape" fill="#008A7B" fill-rule="nonzero"></path>
                <polyline id="Line" stroke="#008A7B" stroke-width="4" stroke-linecap="square" points="52.3285707 160.201201 0 160.201201 0 2 85.5 2"></polyline>
            </g>
            <rect id="light.dining_room_light_level" fill-opacity="0.145720109" fill="#979797" x="172" y="267" width="226.289993" height="107" rx="6"></rect>
            <rect id="light.kitchen_island_light_level" fill-opacity="0.607053895" fill="#99956A" x="402" y="267" width="43.9840041" height="107" rx="6"></rect>
            <rect id="light.kitchen_hallway_light_level" fill-opacity="0.607053895" fill="#99956A" x="369" y="386" width="103" height="20.1700001" rx="6"></rect>
            <rect id="light.kitchen_light_level" fill-opacity="0.607053895" fill="#99956A" x="450" y="267" width="127.440002" height="107" rx="6"></rect>
            <rect id="light.bedroom_light_level" fill-opacity="0.607053895" fill="#99956A" x="589" y="335" width="130.491435" height="135.563843" rx="6"></rect>
            <rect id="light.master_bathroom_light_level" fill-opacity="0.607053895" fill="#99956A" x="647" y="266" width="73.4400024" height="57" rx="6"></rect>
            <rect id="light.living_room_light_level" fill-opacity="0.607053895" fill="#99956A" x="139" y="378" width="108" height="131" rx="6"></rect>
            <g id="sensor-box" transform="translate(156.000000, 417.000000)">
                <rect id="Rectangle-5" fill-opacity="0.383293705" fill="#363636" x="0" y="1" width="69" height="51" rx="6"></rect>
                <text id="sensor.esp8266_temperature" font-family="AvenirNext-Regular, Avenir Next" font-size="12" font-weight="normal" fill="#969696">
                    <tspan x="14" y="12">--º</tspan>
                </text>
                <path d="M9.19125049,9.97287767 L9.19125049,5.73835825 C9.19125049,5.3304405 8.8606163,5 8.45289224,5 C8.04516818,5 7.7143403,5.3304405 7.7143403,5.73835825 L7.7143403,9.97287767 C7.28724693,10.2258409 7,10.6899297 7,11.2221984 C7,12.0244754 7.65042156,12.674897 8.45269855,12.674897 C9.25497553,12.674897 9.9053971,12.0244754 9.9053971,11.2221984 C9.9053971,10.6899297 9.61815017,10.2258409 9.19125049,9.97287767 Z" id="Shape" stroke="#BF626D" stroke-linecap="round" stroke-linejoin="round"></path>
                <text id="sensor.esp8266_humidity" font-family="AvenirNext-Regular, Avenir Next" font-size="12" font-weight="normal" fill="#969696">
                    <tspan x="14" y="24">--%</tspan>
                </text>
                <text id="sensor.pm25_particles" font-family="AvenirNext-Regular, Avenir Next" font-size="12" font-weight="normal" fill="#969696">
                    <tspan x="14" y="36">--</tspan>
                </text>
                <path d="M8.73278902,24.499141 C9.83810795,24.4993974 10.8346831,23.8336258 11.2576015,22.8124157 C11.68052,21.7912057 11.4464482,20.6157805 10.6645831,19.8344887 L8.89879645,18.068702 C8.80707968,17.9770993 8.65849836,17.9770993 8.56678158,18.068702 L6.80099494,19.8344887 C6.01912985,20.6157805 5.78505804,21.7912057 6.20797649,22.8124157 C6.63089494,23.8336258 7.62747009,24.4993974 8.73278902,24.499141 L8.73278902,24.499141 Z M9.09064467,22.9972435 C9.61344707,22.9963803 10.0369259,22.5725512 10.0373569,22.0497483 C10.0373569,21.9200076 10.1425324,21.8148321 10.2722731,21.8148321 C10.4020137,21.8148321 10.5071893,21.9200076 10.5071893,22.0497483 C10.5067578,22.8320322 9.87292827,23.4662121 9.09064467,23.4670759 C8.96090404,23.4670759 8.85572849,23.3619004 8.85572849,23.2321597 C8.85572849,23.1024191 8.96090404,22.9972435 9.09064467,22.9972435 L9.09064467,22.9972435 Z" id="Shape" fill="#6CD1F8" fill-rule="nonzero"></path>
                <g id="Group-2" transform="translate(5.000000, 29.000000)" fill="#D8D8D8">
                    <circle id="Oval-4" cx="3.75127481" cy="0.751274809" r="1"></circle>
                    <circle id="Oval-4" cx="3.75" cy="3.75" r="1.5"></circle>
                    <circle id="Oval-4" cx="0.751274809" cy="3.75127481" r="1"></circle>
                    <circle id="Oval-4" cx="1.75127481" cy="1.75127481" r="1"></circle>
                    <circle id="Oval-4" cx="5.75127481" cy="1.75127481" r="1"></circle>
                    <circle id="Oval-4" cx="5.75127481" cy="5.75127481" r="1"></circle>
                    <circle id="Oval-4" cx="1.75127481" cy="5.75127481" r="1"></circle>
                    <circle id="Oval-4" cx="3.75127481" cy="6.75127481" r="1"></circle>
                    <circle id="Oval-4" cx="6.75127481" cy="3.75127481" r="1"></circle>
                </g>
                <path d="M11.094543,43.471112 C11.0997456,43.4732937 11.1055355,43.4748042 11.110738,43.4769859 C11.0097917,42.2942434 10.0645208,41.3536716 8.87942877,41.2602773 C8.58112091,40.52185 7.85872079,40.0001678 7.01347321,40 C5.90121701,40.0002517 5.00025174,40.9015527 5,42.0134732 C5.00016782,42.8588886 5.52159823,43.5809531 6.26010949,43.8793449 C6.35350377,45.064269 7.29399169,46.0099595 8.47698587,46.110738 C8.47522371,46.1065424 8.47404894,46.1020112 8.4723707,46.0978995 C8.7730281,46.8311243 9.49307868,47.3481073 10.3350537,47.3483591 C11.4470581,47.3481073 12.3481912,46.4470581 12.3481912,45.3349698 C12.3481912,44.4919039 11.8297817,43.7710142 11.094543,43.471112 Z M10.9285069,43.4109365 C10.9267069,43.4103365 10.9246069,43.4099365 10.9226069,43.4094365 C10.9246069,43.4099365 10.9267069,43.4103365 10.9285069,43.4109365 Z M5.61381773,42.0134732 C5.61507642,41.2406419 6.24055795,40.6151603 7.01347321,40.6134821 C7.52424676,40.6146569 7.96931706,40.8890497 8.2137533,41.2976182 C7.24792389,41.4875955 6.48759546,42.2480078 6.29753433,43.2136694 C5.88904975,42.9693171 5.61465686,42.5242468 5.61381773,42.0134732 Z M10.3350537,46.7344574 C9.56180277,46.7331148 8.93657298,46.107885 8.93514647,45.3348859 C8.93657298,44.5618867 9.56180277,43.9366569 10.3350537,43.9351465 C11.1077172,43.9366569 11.7332827,44.5622223 11.7346252,45.3348859 C11.7332827,46.1076333 11.1077172,46.7331987 10.3350537,46.7344574 Z" id="Shape" fill="#A1BC83" fill-rule="nonzero"></path>
                <text id="sensor.esp8266_mhz19_co2" font-family="AvenirNext-Regular, Avenir Next" font-size="12" font-weight="normal" fill="#969696">
                    <tspan x="14" y="48">--</tspan>
                </text>
            </g>
            <ellipse id="switch.living_room_lamp_switch" fill="#E3A62C" cx="233.828357" cy="495.906148" rx="12.828357" ry="12.9061482"></ellipse>
            <path d="M688.460483,289.559108 C687.41528,289.895601 686.328269,290.526526 685.283066,291.325697 C685.450298,290.526526 685.86838,289.769416 686.620926,289.180553 C687.373472,288.591691 688.418675,288.213136 689.087604,287.498088 C690.341848,286.067992 690.090999,282.324506 686.453693,282.030075 C680.516941,281.525335 678.426535,287.498088 679.513546,290.610649 C679.848011,291.66219 680.475133,292.755793 681.269487,293.807334 C680.475133,293.639087 679.722587,293.218471 679.137273,292.461361 C678.551959,291.704252 678.175686,290.652711 677.464948,289.979725 C676.043472,288.717875 672.32255,288.970245 672.029893,292.629608 C671.528196,298.602361 677.464948,300.705443 680.558749,299.61184 C681.603952,299.275347 682.690963,298.644422 683.736166,297.845251 C683.568933,298.644422 683.150852,299.401532 682.398306,299.990395 C681.64576,300.579258 680.600557,300.957813 679.931627,301.672861 C678.677384,303.102956 678.928232,306.846442 682.565538,307.140874 C688.502291,307.645613 690.592697,301.672861 689.505686,298.560299 C689.171221,297.508758 688.544099,296.415156 687.749745,295.363615 C688.544099,295.531861 689.296645,295.952478 689.881959,296.709587 C690.467272,297.466697 690.843545,298.518238 691.554283,299.191224 C692.975759,300.453073 696.696681,300.200703 696.989338,296.54134 C697.532844,290.568588 691.554283,288.465506 688.460483,289.559108 Z M684.488712,296.54134 C683.401701,296.54134 682.52373,295.658046 682.52373,294.564443 C682.52373,293.470841 683.401701,292.587546 684.488712,292.587546 C685.575723,292.587546 686.453693,293.470841 686.453693,294.564443 C686.453693,295.658046 685.575723,296.54134 684.488712,296.54134 Z" id="switch.master_bathroom_fan_switch" fill="#969696" fill-rule="nonzero"></path>
            <text id="sensor.garage_door_message" font-family="AvenirNext-Regular, Avenir Next" font-size="24" font-weight="normal" fill="#969696">
                <tspan x="27" y="156">Heat set to 65º</tspan>
            </text>
            <text id="sensor.todays_weather_message" font-family="AvenirNext-Regular, Avenir Next" font-size="24" font-weight="normal" fill="#969696">
                <tspan x="27" y="123">Today: 55º/82º Mostly Cloudy</tspan>
            </text>
            <text id="sensor.floorplan_datetime_message" font-family="AvenirNext-Regular, Avenir Next" font-size="64" font-weight="normal" fill="#008A7B">
                <tspan x="22" y="79">Dec 24th</tspan>
            </text>
            <text id="script.movie_scene" font-family="AvenirNext-Regular, Avenir Next" font-size="36" font-weight="normal" fill="#969696">
                <tspan x="842" y="262">Movie</tspan>
            </text>
            <text id="button_fan" font-family="AvenirNext-Regular, Avenir Next" font-size="36" font-weight="normal" fill="#969696">
                <tspan x="842" y="194">Fan on</tspan>
            </text>
            <text id="button_bright" font-family="AvenirNext-Regular, Avenir Next" font-size="36" font-weight="normal" fill="#969696">
                <tspan x="842" y="333">Bright</tspan>
            </text>
            <text id="button_dim" font-family="AvenirNext-Regular, Avenir Next" font-size="36" font-weight="normal" fill="#969696">
                <tspan x="842" y="405">Dim</tspan>
            </text>
            <text id="button_all_off" font-family="AvenirNext-Regular, Avenir Next" font-size="36" font-weight="normal" fill="#969696">
                <tspan x="842" y="475">All off</tspan>
            </text>
            <circle id="Oval-3" stroke="#008A7B" cx="971.5" cy="51.5" r="22.5"></circle>
            <circle id="Oval-3" stroke="#008A7B" cx="914.5" cy="51.5" r="22.5"></circle>
            <circle id="Oval-3" stroke="#008A7B" cx="854.5" cy="51.5" r="22.5"></circle>
            <g id="sensor-box" transform="translate(296.000000, 428.000000)">
                <text id="sensor.izzy_room_temperature" font-family="AvenirNext-Regular, Avenir Next" font-size="12" font-weight="normal" fill="#969696">
                    <tspan x="8" y="12">--º</tspan>
                </text>
                <path d="M3.19125049,9.97287767 L3.19125049,5.73835825 C3.19125049,5.3304405 2.8606163,5 2.45289224,5 C2.04516818,5 1.7143403,5.3304405 1.7143403,5.73835825 L1.7143403,9.97287767 C1.28724693,10.2258409 1,10.6899297 1,11.2221984 C1,12.0244754 1.65042156,12.674897 2.45269855,12.674897 C3.25497553,12.674897 3.9053971,12.0244754 3.9053971,11.2221984 C3.9053971,10.6899297 3.61815017,10.2258409 3.19125049,9.97287767 Z" id="Shape" stroke="#BF626D" stroke-linecap="round" stroke-linejoin="round"></path>
                <text id="sensor.izzy_room_humidity" font-family="AvenirNext-Regular, Avenir Next" font-size="12" font-weight="normal" fill="#969696">
                    <tspan x="8" y="25">--%</tspan>
                </text>
                <path d="M2.73278902,24.499141 C3.83810795,24.4993974 4.83468309,23.8336258 5.25760155,22.8124157 C5.68052,21.7912057 5.44644818,20.6157805 4.66458309,19.8344887 L2.89879645,18.068702 C2.80707968,17.9770993 2.65849836,17.9770993 2.56678158,18.068702 L0.800994942,19.8344887 C0.019129851,20.6157805 -0.214941963,21.7912057 0.207976489,22.8124157 C0.630894942,23.8336258 1.62747009,24.4993974 2.73278902,24.499141 L2.73278902,24.499141 Z M3.09064467,22.9972435 C3.61344707,22.9963803 4.03692589,22.5725512 4.03735689,22.0497483 C4.03735689,21.9200076 4.14253244,21.8148321 4.27227307,21.8148321 C4.40201369,21.8148321 4.50718925,21.9200076 4.50718925,22.0497483 C4.50675777,22.8320322 3.87292827,23.4662121 3.09064467,23.4670759 C2.96090404,23.4670759 2.85572849,23.3619004 2.85572849,23.2321597 C2.85572849,23.1024191 2.96090404,22.9972435 3.09064467,22.9972435 L3.09064467,22.9972435 Z" id="Shape" fill="#6CD1F8" fill-rule="nonzero"></path>
            </g>
            <g id="sensor-box" transform="translate(83.000000, 428.000000)">
                <text id="sensor.backyard_temperature" font-family="AvenirNext-Regular, Avenir Next" font-size="12" font-weight="normal" fill="#969696">
                    <tspan x="9" y="12">--º</tspan>
                </text>
                <path d="M4.19125049,9.97287767 L4.19125049,5.73835825 C4.19125049,5.3304405 3.8606163,5 3.45289224,5 C3.04516818,5 2.7143403,5.3304405 2.7143403,5.73835825 L2.7143403,9.97287767 C2.28724693,10.2258409 2,10.6899297 2,11.2221984 C2,12.0244754 2.65042156,12.674897 3.45269855,12.674897 C4.25497553,12.674897 4.9053971,12.0244754 4.9053971,11.2221984 C4.9053971,10.6899297 4.61815017,10.2258409 4.19125049,9.97287767 Z" id="Shape" stroke="#BF626D" stroke-linecap="round" stroke-linejoin="round"></path>
                <text id="sensor.backyard_humidity" font-family="AvenirNext-Regular, Avenir Next" font-size="12" font-weight="normal" fill="#969696">
                    <tspan x="9" y="24">--%</tspan>
                </text>
                <path d="M3.73278902,24.499141 C4.83810795,24.4993974 5.83468309,23.8336258 6.25760155,22.8124157 C6.68052,21.7912057 6.44644818,20.6157805 5.66458309,19.8344887 L3.89879645,18.068702 C3.80707968,17.9770993 3.65849836,17.9770993 3.56678158,18.068702 L1.80099494,19.8344887 C1.01912985,20.6157805 0.785058037,21.7912057 1.20797649,22.8124157 C1.63089494,23.8336258 2.62747009,24.4993974 3.73278902,24.499141 L3.73278902,24.499141 Z M4.09064467,22.9972435 C4.61344707,22.9963803 5.03692589,22.5725512 5.03735689,22.0497483 C5.03735689,21.9200076 5.14253244,21.8148321 5.27227307,21.8148321 C5.40201369,21.8148321 5.50718925,21.9200076 5.50718925,22.0497483 C5.50675777,22.8320322 4.87292827,23.4662121 4.09064467,23.4670759 C3.96090404,23.4670759 3.85572849,23.3619004 3.85572849,23.2321597 C3.85572849,23.1024191 3.96090404,22.9972435 4.09064467,22.9972435 L4.09064467,22.9972435 Z" id="Shape" fill="#6CD1F8" fill-rule="nonzero"></path>
                <text id="sensor.us_air_quality_index" font-family="AvenirNext-Regular, Avenir Next" font-size="12" font-weight="normal" fill="#969696">
                    <tspan x="9" y="36">--</tspan>
                </text>
                <g id="Group-2" transform="translate(0.000000, 29.000000)" fill="#D8D8D8">
                    <circle id="Oval-4" cx="3.75127481" cy="0.751274809" r="1"></circle>
                    <circle id="Oval-4" cx="3.75" cy="3.75" r="1.5"></circle>
                    <circle id="Oval-4" cx="0.751274809" cy="3.75127481" r="1"></circle>
                    <circle id="Oval-4" cx="1.75127481" cy="1.75127481" r="1"></circle>
                    <circle id="Oval-4" cx="5.75127481" cy="1.75127481" r="1"></circle>
                    <circle id="Oval-4" cx="5.75127481" cy="5.75127481" r="1"></circle>
                    <circle id="Oval-4" cx="1.75127481" cy="5.75127481" r="1"></circle>
                    <circle id="Oval-4" cx="3.75127481" cy="6.75127481" r="1"></circle>
                    <circle id="Oval-4" cx="6.75127481" cy="3.75127481" r="1"></circle>
                </g>
            </g>
            <g id="sensor-box" transform="translate(491.000000, 296.000000)">
                <rect id="Rectangle-5" fill-opacity="0.383293705" fill="#363636" x="0" y="0" width="47" height="36" rx="6"></rect>
                <text id="sensor.kitchen_temperature" font-family="AvenirNext-Regular, Avenir Next" font-size="12" font-weight="normal" fill="#969696">
                    <tspan x="16" y="15">--º</tspan>
                </text>
                <path d="M11.1912505,12.9728777 L11.1912505,8.73835825 C11.1912505,8.3304405 10.8606163,8 10.4528922,8 C10.0451682,8 9.7143403,8.3304405 9.7143403,8.73835825 L9.7143403,12.9728777 C9.28724693,13.2258409 9,13.6899297 9,14.2221984 C9,15.0244754 9.65042156,15.674897 10.4526985,15.674897 C11.2549755,15.674897 11.9053971,15.0244754 11.9053971,14.2221984 C11.9053971,13.6899297 11.6181502,13.2258409 11.1912505,12.9728777 Z" id="Shape" stroke="#BF626D" stroke-linecap="round" stroke-linejoin="round"></path>
                <text id="sensor.kitchen_humidity" font-family="AvenirNext-Regular, Avenir Next" font-size="12" font-weight="normal" fill="#969696">
                    <tspan x="16" y="28">--%</tspan>
                </text>
                <path d="M10.732789,27.499141 C11.8381079,27.4993974 12.8346831,26.8336258 13.2576015,25.8124157 C13.68052,24.7912057 13.4464482,23.6157805 12.6645831,22.8344887 L10.8987965,21.068702 C10.8070797,20.9770993 10.6584984,20.9770993 10.5667816,21.068702 L8.80099494,22.8344887 C8.01912985,23.6157805 7.78505804,24.7912057 8.20797649,25.8124157 C8.63089494,26.8336258 9.62747009,27.4993974 10.732789,27.499141 L10.732789,27.499141 Z M11.0906447,25.9972435 C11.6134471,25.9963803 12.0369259,25.5725512 12.0373569,25.0497483 C12.0373569,24.9200076 12.1425324,24.8148321 12.2722731,24.8148321 C12.4020137,24.8148321 12.5071893,24.9200076 12.5071893,25.0497483 C12.5067578,25.8320322 11.8729283,26.4662121 11.0906447,26.4670759 C10.960904,26.4670759 10.8557285,26.3619004 10.8557285,26.2321597 C10.8557285,26.1024191 10.960904,25.9972435 11.0906447,25.9972435 L11.0906447,25.9972435 Z" id="Shape" fill="#6CD1F8" fill-rule="nonzero"></path>
            </g>
            <g id="sensor-box" transform="translate(255.000000, 298.000000)">
                <rect id="Rectangle-5" fill-opacity="0.383293705" fill="#363636" x="0" y="0" width="47" height="21.9194682" rx="6"></rect>
                <text id="sensor.peace_lily_temperature" font-family="AvenirNext-Regular, Avenir Next" font-size="12" font-weight="normal" fill="#969696">
                    <tspan x="16" y="15">--º</tspan>
                </text>
                <path d="M11.1912505,12.9728777 L11.1912505,8.73835825 C11.1912505,8.3304405 10.8606163,8 10.4528922,8 C10.0451682,8 9.7143403,8.3304405 9.7143403,8.73835825 L9.7143403,12.9728777 C9.28724693,13.2258409 9,13.6899297 9,14.2221984 C9,15.0244754 9.65042156,15.674897 10.4526985,15.674897 C11.2549755,15.674897 11.9053971,15.0244754 11.9053971,14.2221984 C11.9053971,13.6899297 11.6181502,13.2258409 11.1912505,12.9728777 Z" id="Shape" stroke="#BF626D" stroke-linecap="round" stroke-linejoin="round"></path>
            </g>
            <g id="sensor-box" transform="translate(630.000000, 383.000000)">
                <rect id="Rectangle-5" fill-opacity="0.383293705" fill="#363636" x="0" y="0" width="47" height="36" rx="6"></rect>
                <text id="sensor.bedroom_temperature" font-family="AvenirNext-Regular, Avenir Next" font-size="12" font-weight="normal" fill="#969696">
                    <tspan x="16" y="15">--º</tspan>
                </text>
                <path d="M11.1912505,12.9728777 L11.1912505,8.73835825 C11.1912505,8.3304405 10.8606163,8 10.4528922,8 C10.0451682,8 9.7143403,8.3304405 9.7143403,8.73835825 L9.7143403,12.9728777 C9.28724693,13.2258409 9,13.6899297 9,14.2221984 C9,15.0244754 9.65042156,15.674897 10.4526985,15.674897 C11.2549755,15.674897 11.9053971,15.0244754 11.9053971,14.2221984 C11.9053971,13.6899297 11.6181502,13.2258409 11.1912505,12.9728777 Z" id="Shape" stroke="#BF626D" stroke-linecap="round" stroke-linejoin="round"></path>
                <text id="sensor.bedroom_humidity" font-family="AvenirNext-Regular, Avenir Next" font-size="12" font-weight="normal" fill="#969696">
                    <tspan x="16" y="28">--%</tspan>
                </text>
                <path d="M10.732789,27.499141 C11.8381079,27.4993974 12.8346831,26.8336258 13.2576015,25.8124157 C13.68052,24.7912057 13.4464482,23.6157805 12.6645831,22.8344887 L10.8987965,21.068702 C10.8070797,20.9770993 10.6584984,20.9770993 10.5667816,21.068702 L8.80099494,22.8344887 C8.01912985,23.6157805 7.78505804,24.7912057 8.20797649,25.8124157 C8.63089494,26.8336258 9.62747009,27.4993974 10.732789,27.499141 L10.732789,27.499141 Z M11.0906447,25.9972435 C11.6134471,25.9963803 12.0369259,25.5725512 12.0373569,25.0497483 C12.0373569,24.9200076 12.1425324,24.8148321 12.2722731,24.8148321 C12.4020137,24.8148321 12.5071893,24.9200076 12.5071893,25.0497483 C12.5067578,25.8320322 11.8729283,26.4662121 11.0906447,26.4670759 C10.960904,26.4670759 10.8557285,26.3619004 10.8557285,26.2321597 C10.8557285,26.1024191 10.960904,25.9972435 11.0906447,25.9972435 L11.0906447,25.9972435 Z" id="Shape" fill="#6CD1F8" fill-rule="nonzero"></path>
            </g>
            <g id="cover.garage_door" transform="translate(74.000000, 269.000000)" stroke="#979797" stroke-width="5" stroke-linecap="square">
                <path d="M2.5,0.5 L2.5,41.5" id="Line-2"></path>
                <path d="M2.5,49.5 L2.5,90.5" id="Line-2"></path>
            </g>
        </g>
    </g>
</svg>